mtllib ./Map1.mtl
g pPlane1
v -32.66667 2.46665 -23.5
v -28.66667 4.21665 -30
v -27.83333 3.633316 -30.66667
v 16.83334 2.133316 1.5
v 1.166668 0.9666495 0
v 17.33334 2.46665 1.5
v -1.666667 0.8833163 0
v -14 0.5499829 6
v -14.5 0.1333162 6
v -2.833333 3.633316 19.33333
v -2.833333 3.299983 18.83333
v 0 0.9666495 1.333333
v 20.5 4.133317 -5
v 21.33334 4.21665 -5
v 39.33334 0.04998289 0
v 1.166668 0.9666495 0
v 1.166668 0.8833163 -0.6666679
v 10.16667 0.2999829 -14.5
v 0 0.8833163 -1.5
v 9.833336 0.2999829 -14.83333
v 9.833336 0.04998288 -16.16667
v 10.16667 0.1333162 -18.66667
v 10.16667 0.04998288 -17
v 0 0.04998291 -39.33334
v 9.833336 0.04998288 -39.16667
v 10.5 0.1333162 -19
v 11 0.5499829 -19
v 15 0.3833162 -39.16667
v 34.83334 0.3833162 -39.16667
v 39.33334 0.04998288 -19
v 11.33334 0.5499829 -18.66667
v 11.33334 0.5499829 -16.66667
v 39.33334 0.2999829 -35.33334
v 38.16667 0.2166495 -38.5
v 39.33334 0.1333162 -14.5
v 11 0.4666495 -14.83333
v 10.66667 0.4666495 -14.5
v 20.16667 2.633316 -6.666668
v 10.16667 0.2999829 -14.5
v 19.83334 3.21665 -5.833332
v 20.5 4.133317 -5
v 20.83334 2.71665 -6.666668
v 38.83334 0.2166495 -12.33333
v 39.16667 0.2166495 -12.66667
v 39.33334 0.2999829 -6.666668
v 39.33334 0.2999829 -10.33333
v 22.16667 3.299983 -6.166668
v 22.16667 3.633316 -5.666668
v 39.33334 0.1333162 -5
v 21.33334 4.21665 -5
v 39.33334 0.04998288 0
v -38.5 0.3833162 -37.33334
v -38.5 0.3833162 -38.16667
v -35 0.3833162 -39.16667
v -39.33334 0.4666495 -31.66667
v -39.33334 0.2999829 -35.16667
v -29.83333 2.633316 -31.66667
v -30.16667 3.21665 -30.83333
v -29.16667 2.71665 -31.66667
v -39.33334 0.3833162 -30
v -15.16667 0.3833162 -39.16667
v -27.83333 3.299983 -31.16667
v -27.83333 3.633316 -30.66667
v -29.5 4.133317 -30
v -12.16667 0.2166495 -39.16667
v -31.33333 2.883316 -20.83333
v -31 2.96665 -21.83333
v -31.33333 3.133316 -22.5
v -32.66667 2.46665 -23.5
v -38.83334 0.3833162 -23.5
v -39.33334 0.2999829 -26.83333
v -33.16667 2.133316 -23.5
v -32.66667 2.46665 -23.5
v -28.66667 4.21665 -30
v -33.5 1.799983 -22.66667
v -38.66667 0.4666495 -20.83333
v -31.83333 2.633316 -20.83333
v -38.66667 0.5499829 -16.66667
v -38.5 0.5499829 -12.66667
v -39 0.5499829 -12.66667
v -39.5 0.04998291 -12.66667
v -37.83334 0.5499829 -12
v -38.16667 0.2166495 -11.16667
v -39 -0.03335047 0
v -39.33334 0.1333162 -8.166668
v -39.33334 -0.03335047 -1.833332
v -38.66667 0.2166495 -11.16667
v -39.66667 0.04998288 -11.16667
v -39.33334 0.1333162 -11.66667
v -39.5 0.04998288 -12.66667
v -39 0.5499829 -12.66667
v -1.166667 0.8833163 -1.166668
v -1.666667 0.8833163 0
v 0 0.04998288 -39.33334
v -11 0.04998288 -39.5
v -13.66667 0.5499829 6.333333
v -14 0.5499829 6
v -0.8333334 0.8833163 1.333333
v 0 0.9666495 1.333333
v -2.833333 3.299983 18.83333
v -13.66667 0.5499829 8.333334
v -4.166667 2.71665 18.33333
v -14 0.4666495 10.16667
v -4.833333 2.633316 18.33333
v -14.33333 0.4666495 10.5
v -14.83333 0.2999829 10.5
v -39.33334 0.3833162 18.33333
v -5.166667 3.21665 19.16667
v -39 0.1333162 10.5
v -15.16667 0.2999829 10.16667
v -39.33334 0.2999829 20
v -38.66667 0.1333162 6
v -4.5 4.133317 20
v -15.16667 0.04998288 8.833334
v -14.83333 0.1333162 6.333333
v -14.83333 0.04998288 8
v -14.5 0.1333162 6
v -39 -0.03335045 0
v -1.666667 0.8833163 0
v -38.83334 0.3833162 26.5
v -39.33334 0.2999829 23.16667
v -8.166667 2.133316 26.5
v -8.5 1.799983 27.33333
v -7.666667 2.46665 26.5
v -38.66667 0.4666495 29.16667
v -3.666667 4.21665 20
v -6.333333 3.133316 27.5
v -6 2.96665 28.16667
v -2.833333 3.633316 19.33333
v -6.833333 2.633316 29.16667
v -6.333333 2.883316 29.16667
v -36.5 0.4666495 38.66667
v -39 0.4666495 36.33334
v -38 0.5499829 38
v 0 0.2999829 39.16667
v 0 0.9666495 1.333333
v -9.833334 0.3833162 39.33334
v -11.5 0.4666495 38.66667
v -12.33333 0.5499829 38.66667
v 11.33334 0.1333162 39
v 18.16667 2.633316 4.166667
v 11.83334 0.2166495 39
v 12.33334 0.2166495 39
v 14.33334 0.1333162 39
v -33 0.3833162 39.33334
v -34.83334 0.3833162 39.33334
v -13.66667 0.1333162 39.16667
v 16.5 1.799983 2.333333
v 0.5 0.8833163 1.333333
v 37.16667 -0.03335047 39
v 17 0.04998288 39.33334
v 15.16667 0.04998288 39.33334
v 39.16667 0.2166495 12.5
v 18.66667 2.883316 4.166667
v 39.33334 -0.03335047 39
v 39.33334 0.1333162 10.33333
v 39.66667 0.1333162 10.5
v 39.33334 0.04998288 4.166667
v 18.66667 2.883316 4.166667
v 19 2.96665 3.166667
v 39.33334 0.04998288 1.5
v 18.66667 3.133316 2.5
v 17.33334 2.46665 1.5
v 39.33334 0.04998288 0
v 1.166668 0.9666495 0
v 0.5 0.8833163 1.333333
v 16.83334 2.133316 1.5
v 16.5 1.799983 2.333333
v 1.166668 0.9666495 0.6666667
v 1.166668 0.9666495 0

vn 0.7269338 0.4031768 0.5558916
vn 0.7269338 0.4031768 0.5558917
vn 0.7269339 0.4031768 0.5558917
vn -0.1058054 0.1587079 0.9816399
vn -0.1058054 0.1587079 0.9816399
vn -0.1058054 0.1587079 0.9816399
vn -0.3954181 0.4745022 -0.7864426
vn -0.3954181 0.4745022 -0.7864426
vn -0.3954181 0.4745022 -0.7864426
vn -0.9394273 0.285184 -0.1901223
vn -0.9394273 0.285184 -0.1901223
vn -0.9394273 0.285184 -0.1901223
vn -0.0439027 0.9119646 0.4079131
vn -0.06409618 0.6409683 0.7648866
vn 0.01930673 0.8087858 0.5877864
vn -0.02270264 0.8819543 0.4707877
vn -0.1681384 0.974836 -0.1463703
vn -0.1909882 0.9676187 -0.1650378
vn 0.03419042 0.9991491 -0.02306817
vn -0.1368224 0.9801047 -0.1437862
vn 0.1197028 0.9925217 0.02391426
vn 0.03396084 0.9992328 -0.01950787
vn 0.1238814 0.991059 0.04955285
vn 0.01624928 0.9997957 -0.01202503
vn -0.02162747 0.9997199 -0.00960742
vn -0.3860575 0.9224313 0.008950481
vn -0.009990532 0.9999441 0.003470518
vn -0.01088097 0.9998865 -0.01042173
vn 0.0120707 0.9999075 0.006274853
vn 0.01718955 0.9998302 0.00662846
vn 0.01781222 0.9998351 -0.00352654
vn 0.01465048 0.999698 0.0197275
vn 0.007058064 0.9998846 0.01345106
vn 0.05948426 0.9970672 -0.04815401
vn 0.02773252 0.9951952 -0.09390126
vn 0.01129565 0.9991736 0.0390432
vn -0.006941889 0.9689521 -0.2471507
vn 0.01990158 0.9560618 -0.2924886
vn -0.1115218 0.9838358 -0.1401074
vn 0.4820477 0.5129444 -0.7102943
vn 0.6036593 0.2493753 -0.7572367
vn 0.06252899 0.9465148 -0.3165435
vn 0.1309314 0.9912028 -0.01933722
vn -0.04987681 0.9975092 -0.04987568
vn 0.1440773 0.9895617 -0.003058215
vn -0.1643991 0.986394 0
vn 0.0900811 0.6423184 -0.7611258
vn 0.1756826 0.855571 -0.4869642
vn 0.2152863 0.9759741 0.03355885
vn 0.219211 0.9663176 -0.1348214
vn 0.2212016 0.9750926 0.01625153
vn -0.01097569 0.9998234 -0.01525893
vn 0 1 0
vn -0.0781963 0.9698695 -0.2307347
vn -0.2233209 0.9700742 -0.09530948
vn -0.2181692 0.9748064 -0.0464193
vn -0.2053611 0.9534137 -0.2209736
vn -0.2477408 0.7836187 -0.5697071
vn -0.01295477 0.9492224 -0.3143389
vn -0.3443001 0.9385149 0.02543943
vn 0.02202348 0.9549453 -0.2959636
vn -0.1557545 0.8227902 -0.5465866
vn 0.2855783 0.945299 0.1576538
vn -0.3065158 0.951865 0.001006173
vn 0.07059755 0.9969167 -0.03425162
vn 0.04474304 0.998224 0.03933026
vn 0.2116129 0.9659654 0.1487642
vn -0.1834054 0.9828646 -0.01842692
vn -0.3796553 0.9189839 -0.1064451
vn -0.3268512 0.9441794 0.04115387
vn -0.323587 0.945871 0.02489131
vn -0.3042087 0.9440889 0.1270954
vn -0.5302197 0.8468602 -0.04116891
vn -0.09744453 0.9744459 0.202385
vn -0.2926612 0.9552209 -0.04361613
vn -0.289291 0.9568737 -0.0265232
vn -0.3278966 0.9378613 -0.1135788
vn -0.3002372 0.9538634 0.001463073
vn -0.221587 0.9730421 0.06393925
vn -0.4629321 0.8855538 -0.03857709
vn -0.7058824 0.7058824 -0.05882263
vn 0.0286369 0.9610373 0.2749315
vn -0.3612455 0.9324607 -0.004334316
vn -0.02809008 0.9913641 0.1280938
vn -0.02236054 0.9995468 0.02015305
vn -0.1431928 0.9893523 0.02603558
vn -0.1027226 0.99468 0.00773043
vn -0.1696071 0.9855037 -0.003967956
vn -0.3406155 0.9400514 0.0168678
vn -0.6671219 0.7433195 0.04923946
vn -0.7058825 0.7058825 0.05881906
vn 0.04135786 0.9988351 0.02485666
vn -0.02454482 0.9996434 -0.01051917
vn 0.01339135 0.9996661 -0.02209694
vn 0.006498551 0.9033188 -0.4289207
vn -0.08901329 0.9874992 -0.1300851
vn -0.01817587 0.9996696 0.01817571
vn -0.0430456 0.9981062 -0.04394331
vn -0.08316711 0.9859059 -0.1451647
vn -0.09351613 0.986418 -0.1350343
vn -0.2419094 0.9702953 0.002643083
vn -0.417244 0.8862284 0.2012626
vn -0.2074525 0.9780473 -0.01967223
vn -0.06590455 0.9579927 -0.2791173
vn -0.2291947 0.9733413 0.00873749
vn -0.0592354 0.9798521 -0.1907378
vn -0.0360761 0.9978797 -0.05417031
vn -0.06759081 0.7571656 -0.6497167
vn -0.006930289 0.9997481 -0.02135113
vn 0.0104704 0.9952244 -0.09705075
vn -0.1041661 0.9945499 0.004440231
vn -0.00263665 0.999855 -0.01681978
vn -0.0737673 0.9940994 0.07952855
vn 0.009185056 0.998908 -0.04580761
vn -0.0002940093 0.9996264 0.02733018
vn 0.1238801 0.9910591 0.04955295
vn -0.02279344 0.9975818 0.06565832
vn -0.005545514 0.9999715 -0.005132804
vn -0.02448199 0.9970844 0.07227132
vn -0.08981102 0.995883 0.01229676
vn -0.1643989 0.986394 0
vn -0.05911113 0.9612993 0.2690903
vn -0.0632183 0.9829327 -0.1727624
vn -0.460613 0.8871393 -0.02862841
vn -0.06212986 0.9980655 0.002249119
vn 0.448062 0.8515235 0.2723016
vn -0.2481948 0.9673412 0.05148014
vn 0.2522815 0.9449335 0.2084586
vn 0.6817 0.7310433 0.02933911
vn -0.04686588 0.9972269 0.05781122
vn 0.1207876 0.9785843 0.1666824
vn -0.05715875 0.9974372 0.04303378
vn 0.001276467 0.9999983 -0.001367644
vn 0.1048029 0.9881334 -0.1122889
vn 0.05007099 0.9973761 0.05228718
vn -0.05191773 0.9976724 0.04420744
vn 0.002045702 0.9709062 0.2394516
vn 0.005942705 0.9709296 0.2392915
vn -0.001419648 0.9758736 0.2183313
vn -0.03059988 0.9990684 0.03042854
vn -0.02874239 0.99847 0.04723715
vn -0.09253477 0.9943422 0.05216094
vn 0.03174502 0.9967181 0.07446644
vn 0.01040514 0.9972899 0.07283247
vn -0.003245397 0.9892637 0.1461056
vn 0 0.992278 0.1240345
vn 0.01539106 0.7475632 0.6640124
vn -0.02228349 0.9175652 -0.3969603
vn 0.04475493 0.2685297 -0.9622312
vn 0.0330016 0.9980018 0.05388229
vn 0.007143903 0.9820734 0.1883636
vn 0 0.9701436 0.2425313
vn 0.1357902 0.9905899 -0.01710639
vn -0.2616225 0.5232443 0.8110297
vn 0 0.9999555 0.009433542
vn 0.2488666 0.9683686 -0.01810117
vn 0.01850303 0.9991437 -0.03700522
vn 0.1372804 0.9904515 -0.0126454
vn 0.1357871 0.9904473 0.02400146
vn 0.1427776 0.9811502 0.1302271
vn 0.1291083 0.991602 -0.007515609
vn 0.1046467 0.862177 -0.4956813
vn 0.0212404 0.6396272 -0.7683917
vn 0.09880259 0.9854194 -0.1385161
vn 0.0149373 0.6219351 -0.7829263
vn -0.0768452 0.994354 0.07317811
vn -0.07534376 0.9412436 0.3292168
vn -0.07513455 0.9358534 0.3442867
vn -0.07574787 0.9967151 0.02865939
vn -0.07426242 0.9972388 0


usemtl pPlane1Mat
usemap pPlane1Mat
f 2/2/2 1/1/1 3/3/3
f 5/5/5 4/4/4 6/6/6
f 8/8/8 7/7/7 9/9/9
f 11/11/11 10/10/10 12/12/12
f 14/14/14 13/13/13 15/15/15
f 15/15/15 13/13/13 16/16/16
f 16/16/16 13/13/13 17/17/17
f 13/13/13 18/18/18 17/17/17
f 17/17/17 18/18/18 19/19/19
f 18/18/18 20/20/20 19/19/19
f 20/20/20 21/21/21 19/19/19
f 21/21/21 22/22/22 19/19/19
f 23/23/23 22/22/22 21/21/21
f 19/19/19 22/22/22 24/24/24
f 24/24/24 22/22/22 25/25/25
f 26/26/26 25/25/25 22/22/22
f 27/27/27 25/25/25 26/26/26
f 28/28/28 25/25/25 27/27/27
f 27/27/27 29/29/29 28/28/28
f 30/30/30 29/29/29 27/27/27
f 27/27/27 31/31/31 30/30/30
f 31/31/31 32/32/32 30/30/30
f 33/33/33 29/29/29 30/30/30
f 34/34/34 29/29/29 33/33/33
f 30/30/30 32/32/32 35/35/35
f 36/36/36 35/35/35 32/32/32
f 37/37/37 35/35/35 36/36/36
f 38/38/38 35/35/35 37/37/37
f 39/39/39 38/38/38 37/37/37
f 38/38/38 39/39/39 40/40/40
f 40/40/40 39/39/39 41/41/41
f 42/42/42 35/35/35 38/38/38
f 43/43/43 35/35/35 42/42/42
f 44/44/44 35/35/35 43/43/43
f 45/45/45 43/43/43 42/42/42
f 46/46/46 43/43/43 45/45/45
f 42/42/42 47/47/47 45/45/45
f 47/47/47 48/48/48 45/45/45
f 45/45/45 48/48/48 49/49/49
f 50/50/50 49/49/49 48/48/48
f 49/49/49 50/50/50 51/51/51
f 53/53/53 52/52/52 54/54/54
f 52/52/52 55/55/55 54/54/54
f 56/56/56 55/55/55 52/52/52
f 54/54/54 55/55/55 57/57/57
f 57/57/57 55/55/55 58/58/58
f 57/57/57 59/59/59 54/54/54
f 58/58/58 55/55/55 60/60/60
f 54/54/54 59/59/59 61/61/61
f 59/59/59 62/62/62 61/61/61
f 62/62/62 63/63/63 61/61/61
f 60/60/60 64/64/64 58/58/58
f 61/61/61 63/63/63 65/65/65
f 63/63/63 66/66/66 65/65/65
f 67/67/67 66/66/66 63/63/63
f 68/68/68 67/67/67 63/63/63
f 69/69/69 68/68/68 63/63/63
f 60/60/60 70/70/70 64/64/64
f 71/71/71 70/70/70 60/60/60
f 64/64/64 70/70/70 72/72/72
f 72/72/72 73/73/73 64/64/64
f 64/64/64 73/73/73 74/74/74
f 72/72/72 70/70/70 75/75/75
f 70/70/70 76/76/76 75/75/75
f 75/75/75 76/76/76 77/77/77
f 76/76/76 78/78/78 77/77/77
f 77/77/77 78/78/78 66/66/66
f 78/78/78 79/79/79 66/66/66
f 80/80/80 79/79/79 78/78/78
f 81/81/81 80/80/80 78/78/78
f 79/79/79 82/82/82 66/66/66
f 82/82/82 83/83/83 66/66/66
f 83/83/83 84/84/84 66/66/66
f 85/85/85 84/84/84 83/83/83
f 86/86/86 84/84/84 85/85/85
f 87/87/87 85/85/85 83/83/83
f 88/88/88 85/85/85 87/87/87
f 87/87/87 89/89/89 88/88/88
f 89/89/89 90/90/90 88/88/88
f 91/91/91 90/90/90 89/89/89
f 66/66/66 84/84/84 92/92/92
f 92/92/92 84/84/84 93/93/93
f 92/92/92 65/65/65 66/66/66
f 19/19/19 65/65/65 92/92/92
f 94/94/94 65/65/65 19/19/19
f 95/95/95 65/65/65 94/94/94
f 97/97/97 96/96/96 93/93/93
f 93/93/93 96/96/96 98/98/98
f 98/98/98 96/96/96 99/99/99
f 99/99/99 96/96/96 100/100/100
f 100/100/100 96/96/96 101/101/101
f 102/102/102 100/100/100 101/101/101
f 103/103/103 102/102/102 101/101/101
f 104/104/104 102/102/102 103/103/103
f 105/105/105 104/104/104 103/103/103
f 105/105/105 106/106/106 104/104/104
f 106/106/106 107/107/107 104/104/104
f 104/104/104 107/107/107 108/108/108
f 109/109/109 107/107/107 106/106/106
f 106/106/106 110/110/110 109/109/109
f 108/108/108 107/107/107 111/111/111
f 110/110/110 112/112/112 109/109/109
f 111/111/111 113/113/113 108/108/108
f 114/114/114 112/112/112 110/110/110
f 114/114/114 115/115/115 112/112/112
f 116/116/116 115/115/115 114/114/114
f 117/117/117 112/112/112 115/115/115
f 112/112/112 117/117/117 118/118/118
f 118/118/118 117/117/117 119/119/119
f 111/111/111 120/120/120 113/113/113
f 121/121/121 120/120/120 111/111/111
f 113/113/113 120/120/120 122/122/122
f 122/122/122 120/120/120 123/123/123
f 124/124/124 113/113/113 122/122/122
f 123/123/123 120/120/120 125/125/125
f 113/113/113 124/124/124 126/126/126
f 124/124/124 127/127/127 126/126/126
f 127/127/127 128/128/128 126/126/126
f 126/126/126 128/128/128 129/129/129
f 130/130/130 123/123/123 125/125/125
f 128/128/128 131/131/131 129/129/129
f 125/125/125 132/132/132 130/130/130
f 133/133/133 132/132/132 125/125/125
f 134/134/134 132/132/132 133/133/133
f 131/131/131 135/135/135 129/129/129
f 136/136/136 129/129/129 135/135/135
f 137/137/137 135/135/135 131/131/131
f 138/138/138 137/137/137 131/131/131
f 131/131/131 130/130/130 138/138/138
f 138/138/138 130/130/130 139/139/139
f 130/130/130 132/132/132 139/139/139
f 140/140/140 136/136/136 135/135/135
f 141/141/141 136/136/136 140/140/140
f 142/142/142 141/141/141 140/140/140
f 143/143/143 141/141/141 142/142/142
f 144/144/144 141/141/141 143/143/143
f 132/132/132 145/145/145 139/139/139
f 146/146/146 145/145/145 132/132/132
f 139/139/139 145/145/145 147/147/147
f 148/148/148 136/136/136 141/141/141
f 149/149/149 136/136/136 148/148/148
f 150/150/150 141/141/141 144/144/144
f 150/150/150 144/144/144 151/151/151
f 151/151/151 144/144/144 152/152/152
f 153/153/153 141/141/141 150/150/150
f 154/154/154 141/141/141 153/153/153
f 155/155/155 153/153/153 150/150/150
f 157/157/157 156/156/156 153/153/153
f 156/156/156 158/158/158 153/153/153
f 153/153/153 158/158/158 159/159/159
f 159/159/159 158/158/158 160/160/160
f 158/158/158 161/161/161 160/160/160
f 160/160/160 161/161/161 162/162/162
f 163/163/163 162/162/162 161/161/161
f 164/164/164 163/163/163 161/161/161
f 165/165/165 163/163/163 164/164/164
f 167/167/167 166/166/166 168/168/168
f 166/166/166 167/167/167 169/169/169
f 169/169/169 167/167/167 170/170/170
